<svg width="20" height="10" viewBox="0 0 20 10" fill="none" xmlns="http://www.w3.org/2000/svg">
<path d="M13.8994 0.324272C14.2726 -0.0827209 14.9054 -0.110404 15.3125 0.262748L19.6758 4.26275C19.8824 4.45216 20 4.71975 20 5.00005C20 5.28036 19.8824 5.54795 19.6758 5.73736L15.3125 9.73736C14.9054 10.1105 14.2726 10.0828 13.8994 9.67583C13.5262 9.26871 13.5538 8.63594 13.9609 8.26275L16.4287 6.00005H1C0.447715 6.00005 0 5.55234 0 5.00005C0 4.44777 0.447715 4.00005 1 4.00005H16.4287L13.9609 1.73736C13.5538 1.36417 13.5262 0.731391 13.8994 0.324272Z" fill="#331F01"/>
</svg>
